<?xml version="1.0" standalone="no"?>
<!DOCTYPE svg PUBLIC "-//W3C//DTD SVG 20010904//EN"
 "http://www.w3.org/TR/2001/REC-SVG-20010904/DTD/svg10.dtd">
<svg version="1.0" xmlns="http://www.w3.org/2000/svg"
 width="2488.000000pt" height="2279.000000pt" viewBox="0 0 2488.000000 2279.000000"
 preserveAspectRatio="xMidYMid meet">

<g transform="translate(0.000000,2279.000000) scale(0.100000,-0.100000)"
fill="#000000" stroke="none">
<path d="M8855 21803 c-927 -51 -2136 -468 -3205 -1106 -651 -388 -1213 -823
-1790 -1384 -346 -336 -523 -525 -755 -803 -1261 -1514 -2041 -3441 -2295
-5670 -84 -741 -104 -1043 -104 -1525 0 -426 12 -629 55 -980 69 -564 208
-1145 395 -1652 439 -1196 1175 -2229 2198 -3088 943 -791 2184 -1468 3321
-1811 1032 -311 2048 -404 3065 -279 63 8 187 19 275 25 1469 100 2930 660
4405 1688 473 330 1158 872 1409 1116 224 218 543 564 1431 1551 672 747 871
966 1255 1385 1494 1629 2621 2736 3434 3369 494 386 875 604 1188 681 56 14
72 41 42 71 l-22 22 -366 -6 c-893 -15 -2590 -146 -3916 -303 -1943 -229
-3280 -516 -3935 -844 -173 -87 -286 -166 -385 -273 -128 -135 -158 -184 -163
-262 -5 -82 11 -128 92 -269 150 -258 179 -351 180 -571 0 -124 -4 -167 -23
-245 -107 -434 -448 -1154 -789 -1662 -268 -400 -618 -803 -892 -1029 -789
-650 -1690 -1018 -2750 -1123 -169 -17 -239 -9 -476 49 -776 191 -1713 720
-2424 1366 -1097 998 -1769 2256 -1979 3704 -91 624 -91 1344 0 2010 63 470
199 972 374 1387 l37 87 126 64 c70 36 213 112 317 170 105 58 191 104 193
102 2 -1 -17 -49 -41 -106 -68 -162 -70 -167 -63 -194 4 -14 17 -30 30 -35 49
-18 115 11 466 210 381 215 638 346 840 428 l95 38 100 -23 c55 -12 156 -29
225 -37 170 -20 220 -32 272 -65 52 -33 77 -78 88 -160 10 -75 5 -111 -94
-651 -212 -1159 -453 -2533 -606 -3450 -196 -1174 -278 -1734 -287 -1950 -26
-641 267 -1368 746 -1848 495 -498 1164 -710 1828 -581 77 16 172 24 333 29
234 8 348 24 540 74 652 170 1303 612 2110 1432 421 428 800 885 1052 1269
109 165 155 252 164 307 6 31 3 38 -20 53 -23 15 -30 16 -59 4 -17 -7 -133
-112 -257 -234 -231 -225 -412 -395 -424 -395 -3 0 28 45 69 101 158 212 270
400 282 471 4 31 2 38 -20 52 -51 34 -78 14 -384 -278 -424 -405 -771 -685
-1118 -901 -235 -147 -521 -278 -720 -330 l-96 -25 -80 30 c-448 163 -725 692
-764 1460 -9 172 4 319 75 795 400 2703 704 4205 931 4602 30 53 31 53 67 47
21 -4 73 -8 117 -8 69 -1 88 3 134 27 63 32 65 32 160 10 80 -19 79 -19 116
41 9 14 20 15 90 6 147 -18 173 -27 185 -66 17 -51 56 -92 95 -100 19 -3 39
-12 46 -20 21 -26 58 -14 232 76 l175 91 7 -73 c9 -86 18 -108 46 -108 12 0
109 47 218 104 1103 583 2365 1136 3256 1426 488 159 807 236 1051 254 137 10
179 17 216 34 52 26 212 41 421 42 153 0 190 12 213 65 16 40 12 68 -22 136
-130 260 -836 829 -1760 1417 -936 596 -1964 1140 -2940 1558 -1373 586 -2619
920 -3671 984 -153 9 -1034 11 -1188 3z m1110 -43 c869 -43 1800 -252 2898
-652 1285 -467 2743 -1208 3987 -2026 796 -523 1413 -1032 1531 -1264 12 -24
19 -54 17 -76 l-3 -37 -202 -2 c-232 -1 -349 -12 -593 -54 -893 -152 -2176
-641 -3780 -1440 -239 -119 -500 -251 -579 -293 -109 -58 -146 -73 -153 -64
-13 22 -9 317 7 413 48 297 164 522 523 1014 163 223 198 305 172 401 -10 36
-36 68 -143 178 -710 724 -1537 1138 -2492 1248 -182 21 -633 24 -805 6 -842
-91 -1589 -372 -2355 -887 -1281 -861 -2223 -2193 -2589 -3660 -172 -692 -228
-1554 -150 -2335 134 -1348 656 -2540 1554 -3545 142 -160 442 -451 615 -599
771 -658 1721 -1150 2505 -1297 300 -56 815 -27 1325 76 591 119 1159 350
1655 673 978 637 1767 1689 2218 2962 71 200 102 325 109 451 13 230 -37 396
-189 626 -164 248 -169 304 -38 431 471 460 2179 858 4895 1141 1054 110 2349
204 2990 216 l260 5 -90 -24 c-627 -167 -1732 -1065 -3280 -2666 -763 -789
-1231 -1296 -2505 -2710 -1236 -1373 -1435 -1582 -1740 -1836 -1318 -1098
-2420 -1753 -3622 -2155 -633 -211 -1234 -333 -1873 -379 -181 -13 -720 -13
-900 0 -1368 99 -2676 573 -3995 1445 -1194 790 -2091 1772 -2674 2925 -473
934 -727 1914 -787 3035 -14 272 -6 867 16 1125 48 563 104 1065 160 1425 283
1818 936 3435 1919 4755 274 368 542 677 880 1016 281 281 422 408 741 669
464 380 1171 837 1675 1082 790 384 1579 623 2225 673 265 20 406 22 660 10z
m1220 -2856 c270 -37 539 -116 825 -241 146 -64 370 -184 370 -198 0 -5 -52
-202 -117 -437 -64 -236 -113 -431 -110 -434 3 -4 264 9 579 28 315 19 574 34
576 33 2 -2 -671 -1577 -708 -1657 -11 -24 -15 -25 -34 -13 -59 37 -294 66
-591 72 l-260 5 -42 -31 c-53 -38 -94 -94 -138 -186 -231 -479 -529 -1977
-920 -4615 -67 -456 -79 -583 -71 -767 25 -566 202 -1053 476 -1307 348 -322
810 -336 1401 -41 429 214 852 542 1419 1101 290 285 325 311 287 207 -38
-102 -219 -374 -429 -644 -264 -340 -551 -661 -889 -994 -846 -834 -1503
-1236 -2194 -1341 -245 -37 -578 -16 -810 51 -815 236 -1446 1028 -1597 2005
-8 52 -13 173 -13 310 0 207 4 246 38 485 189 1301 488 3085 887 5302 55 304
100 566 100 583 0 34 -4 35 -51 16 -53 -22 -224 -39 -319 -31 -118 9 -265 39
-397 79 -141 44 -207 51 -319 37 -300 -39 -674 -201 -1364 -591 -361 -204
-430 -235 -430 -192 0 29 125 296 210 449 352 633 956 1319 1640 1861 80 63
154 125 165 137 l20 23 605 -59 c333 -32 615 -60 627 -62 13 -2 27 1 31 7 5 6
19 63 31 126 13 63 42 197 66 296 87 361 112 421 190 454 22 9 87 29 145 44
58 15 155 43 215 62 132 41 276 71 405 84 120 11 352 4 495 -16z m-1657 -46
c23 -23 11 -33 -71 -56 -140 -39 -205 -81 -245 -157 -9 -18 -41 -61 -71 -96
-71 -83 -99 -149 -151 -349 -23 -91 -49 -182 -57 -202 l-15 -38 -52 5 c-28 3
-152 15 -274 26 l-224 20 -36 -24 -37 -24 -245 24 c-135 13 -255 22 -268 19
-29 -5 -31 -6 113 96 423 301 903 544 1395 709 180 60 217 68 238 47z m2955
-666 c130 -93 283 -219 411 -338 136 -125 162 -152 154 -160 -13 -13 -120 -16
-142 -5 -18 10 -91 8 -357 -7 -184 -11 -336 -19 -337 -17 -4 4 13 67 100 378
50 180 63 217 76 212 9 -3 52 -32 95 -63z m1247 -7729 c0 -5 -5 -15 -10 -23
-8 -12 -10 -11 -10 8 0 12 5 22 10 22 6 0 10 -3 10 -7z"/>
<path d="M17990 17285 c-1147 -190 -2468 -592 -3860 -1173 -657 -274 -1478
-658 -1494 -697 -3 -9 -6 -29 -6 -44 0 -18 -13 -39 -40 -66 -22 -21 -50 -59
-62 -84 -43 -88 -26 -291 57 -655 67 -291 104 -345 253 -360 62 -6 67 -4 227
64 90 39 166 70 169 70 2 0 14 -29 26 -65 14 -41 28 -66 40 -70 24 -7 -16 -24
1020 432 1177 519 1072 475 1088 455 41 -53 41 -152 2 -574 -29 -317 -36 -361
-66 -444 l-14 -41 -143 -37 c-78 -20 -406 -101 -729 -181 -322 -80 -660 -167
-750 -194 -369 -112 -516 -188 -523 -270 -1 -17 -9 -39 -17 -49 -62 -70 -62
-161 -3 -269 116 -212 359 -549 489 -679 179 -179 275 -193 589 -84 80 28 91
30 106 16 27 -24 103 -56 137 -56 17 0 89 22 160 49 590 223 2201 660 3409
926 1394 307 2338 443 3540 510 278 15 354 25 394 52 29 19 210 31 493 32 157
1 158 1 174 26 15 23 15 27 1 49 -9 13 -40 38 -70 55 -190 108 -1039 444
-2229 880 l-358 131 -80 -12 c-61 -8 -90 -8 -119 1 -35 10 -164 -8 -1177 -164
-625 -96 -1143 -175 -1150 -175 -11 0 -12 14 -9 58 3 31 21 284 41 562 19 278
39 508 42 512 26 25 1217 272 1364 283 47 3 110 14 140 24 83 29 242 47 282
33 44 -16 71 -15 86 3 8 10 30 15 65 15 29 0 69 -7 88 -15 106 -44 138 26 73
160 -139 291 -585 803 -858 985 -126 85 -183 105 -288 101 -132 -4 -170 -4
-240 2 -49 5 -115 -2 -270 -28z m613 -25 c144 -45 357 -217 586 -475 236 -265
451 -581 451 -662 0 -28 -7 -29 -33 -5 -30 26 -286 23 -477 -7 -390 -61 -1543
-305 -1610 -341 -12 -7 -20 -21 -20 -38 -1 -15 -20 -299 -44 -632 -24 -333
-42 -607 -40 -609 1 -1 582 89 1291 202 l1288 204 338 -123 c1352 -496 2216
-842 2281 -913 13 -15 2 -16 -157 -12 -393 8 -1124 -45 -1787 -130 -1552 -197
-3540 -632 -5310 -1160 -287 -86 -706 -223 -779 -255 -29 -13 -63 -24 -74 -24
-95 0 -283 189 -483 485 -155 229 -354 564 -354 595 0 58 238 159 645 274 88
24 475 124 860 221 385 97 706 178 713 180 7 3 16 15 22 27 8 21 120 1262 120
1335 0 39 -13 48 -42 29 -30 -19 -2633 -1166 -2647 -1166 -13 0 -38 84 -95
320 -73 298 -116 581 -116 761 l0 66 358 175 c1649 812 3340 1403 4697 1642
373 65 334 62 418 36z"/>
<path d="M23208 13260 c-206 -52 -355 -195 -413 -395 -19 -68 -41 -98 -67 -92
-21 6 -103 -17 -132 -37 -32 -21 -489 -444 -509 -472 -22 -28 -48 -120 -40
-139 3 -9 -5 -16 -24 -21 -168 -39 -209 -56 -293 -117 -96 -70 -172 -178 -209
-295 -12 -39 -33 -78 -56 -103 -35 -39 -85 -130 -85 -156 0 -6 -26 -19 -57
-28 -161 -44 -199 -69 -390 -259 -125 -125 -153 -158 -162 -193 -10 -38 -15
-43 -49 -49 -30 -5 -57 -27 -143 -113 -97 -98 -106 -110 -117 -161 -7 -31 -10
-70 -6 -88 6 -31 6 -32 -24 -26 -17 4 -55 1 -84 -6 -48 -11 -63 -23 -159 -119
-97 -98 -106 -110 -117 -161 -8 -38 -9 -68 -2 -95 13 -54 13 -55 -11 -55 -11
0 -34 -14 -51 -31 -20 -19 -55 -38 -97 -51 -233 -72 -440 -271 -511 -493 -7
-22 -28 -58 -47 -80 -19 -22 -46 -65 -61 -97 l-27 -57 -80 -25 c-209 -66 -412
-255 -491 -458 -16 -40 -44 -93 -62 -117 -88 -116 -127 -243 -119 -386 9 -169
58 -252 172 -294 77 -29 81 -33 114 -105 33 -71 58 -97 126 -128 45 -20 69
-23 245 -27 324 -7 346 -5 459 23 120 31 180 59 271 126 79 59 122 104 184
192 61 87 89 158 116 294 l23 110 106 24 c123 28 208 68 306 143 190 146 300
374 299 625 0 85 3 111 12 108 66 -25 205 -12 334 31 41 14 127 68 175 110 29
26 103 121 122 157 20 38 63 201 63 240 0 21 3 26 13 18 23 -19 100 -28 152
-18 45 9 60 19 156 115 100 100 108 109 118 161 6 34 7 69 2 91 l-8 37 34 -10
c23 -6 53 -5 91 2 54 12 62 17 173 129 108 109 116 120 127 172 12 54 14 57
55 68 104 31 244 154 305 269 17 31 40 98 52 148 l21 91 51 -14 c75 -22 138
-6 211 55 102 84 423 386 444 417 24 37 44 113 37 142 -5 19 0 23 35 32 23 6
60 16 83 22 100 26 200 98 276 198 61 79 83 131 107 249 15 76 15 89 1 160
-33 163 -55 209 -164 343 -79 98 -152 121 -295 95 l-48 -8 22 42 c29 55 31
149 5 203 -57 117 -299 185 -488 137z m249 -196 c77 -25 77 -28 20 -124 -49
-82 -51 -83 -65 -62 -18 28 -55 28 -113 1 -84 -40 -119 -88 -119 -164 0 -26 9
-63 19 -84 l20 -38 303 58 303 58 29 -32 c171 -192 178 -408 20 -564 -73 -70
-143 -97 -241 -90 -72 5 -163 37 -163 57 0 6 10 30 22 53 13 23 25 53 28 67 4
19 10 24 25 20 11 -3 45 -5 77 -5 47 0 63 5 100 31 85 62 110 136 70 214 -22
44 -10 45 -327 -19 -137 -28 -262 -50 -277 -51 -53 0 -155 151 -179 268 -17
80 -2 170 40 257 37 75 103 129 191 156 45 13 168 10 217 -7z m-674 -559 l68
-73 -160 -148 -159 -149 72 -79 c40 -44 78 -82 84 -84 10 -3 136 107 281 246
25 23 46 42 47 42 1 0 32 -33 68 -74 l66 -73 -71 -70 -72 -70 55 -138 55 -137
116 106 115 106 67 -72 c36 -39 64 -74 63 -78 -2 -4 -73 -72 -158 -151 -85
-78 -179 -165 -209 -192 l-53 -50 -19 54 c-46 134 -156 393 -172 403 -14 9
-26 2 -69 -39 -29 -28 -65 -61 -80 -74 -27 -24 -28 -24 -35 -4 -5 11 -95 113
-202 226 -107 113 -198 212 -203 220 -6 11 41 61 195 202 111 103 208 195 216
206 7 10 16 18 20 18 3 -1 37 -34 74 -74z m-580 -628 l38 -16 -42 -78 c-53
-99 -55 -100 -77 -80 -25 23 -44 21 -108 -9 -99 -47 -135 -136 -94 -232 12
-29 25 -52 29 -52 3 0 141 32 305 72 l300 72 48 -55 c27 -30 65 -88 86 -129
35 -69 37 -80 37 -165 -1 -79 -4 -97 -29 -147 -39 -77 -105 -144 -174 -176
-47 -22 -70 -27 -127 -25 -77 1 -143 21 -159 46 -8 13 -5 27 12 60 12 23 22
54 22 70 0 30 4 32 49 16 43 -15 89 -5 146 33 59 39 85 80 85 135 0 84 -49
141 -98 114 -21 -11 -510 -131 -535 -131 -24 0 -115 109 -150 180 -30 60 -32
72 -32 170 0 96 3 110 31 170 36 76 93 130 168 160 64 25 210 24 269 -3z
m-612 -690 c112 -54 190 -167 206 -296 l8 -64 249 -83 c137 -46 251 -86 254
-89 7 -6 -67 -84 -121 -127 -34 -27 -39 -29 -50 -14 -13 17 -356 136 -392 136
-12 0 -46 -25 -80 -60 l-60 -60 145 -145 145 -145 -68 -68 c-59 -59 -68 -64
-73 -47 -3 12 -113 126 -245 255 -132 128 -248 244 -256 257 -16 24 -15 26 39
80 l56 56 56 -48 c63 -53 51 -55 141 23 56 49 74 81 75 131 0 49 -43 117 -90
141 -83 43 -137 17 -297 -142 l-122 -121 -53 58 c-65 70 -71 80 -63 104 9 30
229 238 277 262 68 35 87 39 179 36 69 -2 96 -8 140 -30z m427 -192 c-13 -30
-34 -33 -41 -6 -4 15 1 21 22 24 14 2 27 5 28 6 2 0 -3 -10 -9 -24z m-1023
-469 l200 -194 -65 -67 c-56 -57 -66 -64 -75 -49 -5 10 -71 76 -145 148 -74
72 -156 152 -182 177 -27 25 -48 51 -48 58 0 11 100 121 110 121 3 0 95 -88
205 -194z m-309 -474 c317 -302 328 -309 426 -282 20 6 59 28 86 49 75 59 87
130 41 223 -11 21 -19 39 -19 42 0 3 25 31 55 62 54 55 56 56 76 38 11 -9 34
-47 52 -83 30 -61 32 -73 32 -166 0 -90 -3 -106 -29 -159 -52 -106 -156 -186
-261 -201 -51 -8 -175 18 -240 50 -35 17 -134 105 -326 289 -152 145 -279 272
-283 281 -4 11 10 33 46 71 28 30 54 54 57 54 3 0 133 -121 287 -268z m-392
-232 c111 -28 190 -73 271 -155 224 -223 234 -570 22 -801 -107 -117 -235
-174 -390 -174 -347 0 -606 246 -607 577 0 101 15 163 67 273 49 107 82 145
167 201 142 93 307 121 470 79z m-884 -799 c0 -38 3 -82 6 -98 6 -30 5 -30
-43 -37 -106 -14 -226 -101 -280 -203 -63 -117 -64 -235 -4 -355 l30 -58 -71
-54 -71 -54 -39 81 c-90 185 -91 354 -3 543 41 89 74 132 146 186 66 50 144
86 224 103 108 24 105 25 105 -54z m127 -476 c55 -38 73 -56 73 -73 0 -48 -44
-104 -107 -136 -110 -55 -263 41 -263 166 0 66 52 144 110 166 22 8 31 4 70
-32 25 -23 78 -64 117 -91z m483 -73 c0 -213 -177 -446 -389 -513 -117 -37
-295 -22 -423 34 -68 30 -76 49 -43 98 14 21 25 41 25 43 0 3 4 16 10 30 l9
26 51 -26 c151 -76 322 -45 462 84 88 81 138 195 108 242 -8 13 1 16 58 21
144 12 132 16 132 -39z"/>
<path d="M20130 9650 c-111 -20 -196 -66 -268 -145 -68 -74 -95 -146 -95 -250
0 -107 27 -176 100 -255 155 -167 390 -168 574 -2 130 118 160 283 79 442 -52
102 -144 176 -255 204 -64 17 -68 17 -135 6z m73 -264 c65 -28 101 -100 83
-170 -9 -35 -52 -83 -82 -90 -38 -10 -129 34 -148 73 -23 43 -21 143 2 164 40
36 94 45 145 23z"/>
<path d="M17986 8058 c-46 -13 -194 -149 -232 -214 -29 -49 -39 -114 -26 -169
8 -37 7 -41 -10 -42 -28 -3 -65 -29 -73 -53 -6 -18 -15 -20 -76 -20 -101 0
-155 -16 -200 -61 -64 -64 -72 -168 -19 -254 l19 -31 -64 -12 c-219 -41 -384
-140 -508 -305 -57 -76 -96 -146 -117 -212 -7 -22 -27 -58 -45 -80 -17 -22
-38 -52 -47 -66 -14 -22 -26 -27 -76 -31 -32 -3 -73 -13 -91 -23 -46 -23 -188
-161 -216 -210 -13 -22 -37 -46 -53 -53 -17 -7 -112 -90 -213 -185 -100 -95
-210 -197 -243 -227 -34 -30 -91 -85 -128 -121 -61 -61 -68 -72 -80 -129 l-12
-62 -37 6 c-98 16 -208 -50 -224 -132 -8 -45 -21 -62 -47 -62 -21 0 -228 -154
-257 -192 -29 -37 -44 -116 -32 -168 18 -78 16 -83 -26 -77 -21 3 -63 13 -93
22 -88 26 -133 11 -262 -86 -58 -44 -116 -95 -129 -113 -19 -28 -32 -35 -88
-46 -114 -22 -203 -58 -286 -114 -96 -65 -156 -126 -222 -222 l-49 -72 -24 18
c-43 30 -114 42 -167 28 -97 -24 -227 -85 -269 -126 -54 -53 -70 -120 -50
-204 7 -32 12 -58 10 -58 -1 0 -59 26 -127 59 -68 32 -146 64 -174 70 -69 17
-134 0 -182 -48 -29 -29 -60 -44 -156 -75 -101 -34 -125 -46 -161 -81 -53 -54
-72 -120 -54 -196 7 -27 10 -52 8 -54 -2 -3 -58 25 -124 62 -142 79 -192 96
-254 88 -52 -8 -75 -18 -110 -50 -15 -14 -74 -36 -155 -59 -174 -49 -215 -79
-240 -175 -11 -45 -7 -83 20 -183 7 -26 5 -28 -21 -28 -71 0 -124 -71 -109
-146 10 -54 241 -787 259 -821 22 -44 73 -83 106 -83 16 0 41 11 57 24 l28 24
39 -34 c36 -31 76 -48 131 -55 53 -7 272 59 323 98 29 22 47 27 101 29 70 2
238 56 291 94 65 46 95 137 75 224 -7 31 -11 56 -8 56 2 0 60 -31 128 -69 68
-38 145 -74 172 -80 73 -18 135 0 188 54 30 32 51 43 84 49 83 13 249 87 292
129 60 60 75 140 45 228 -8 24 -14 44 -13 45 1 1 58 -25 127 -58 69 -33 147
-66 174 -74 137 -37 257 72 245 223 -3 35 -2 38 21 35 14 -1 79 -5 145 -8 107
-5 131 -3 223 20 130 32 174 52 272 121 113 80 210 194 261 309 25 58 65 214
74 294 4 34 9 62 12 62 2 0 64 -35 136 -77 130 -76 133 -77 202 -77 109 -1
172 48 196 150 11 49 12 49 53 50 62 2 107 27 210 119 100 89 127 131 131 204
3 40 9 51 49 87 40 37 49 41 78 35 81 -17 160 24 295 155 53 52 72 79 79 109
9 35 14 40 52 50 47 11 174 112 234 186 78 95 65 208 -34 314 l-28 31 18 36
19 36 68 -59 c90 -78 144 -94 234 -69 35 9 64 32 146 113 89 89 104 108 114
151 13 53 7 114 -14 157 l-14 25 87 17 c145 27 216 54 310 116 127 86 241 215
291 333 19 45 56 192 67 266 5 39 8 42 22 29 30 -25 102 -37 152 -25 66 17
111 50 194 145 58 66 77 95 86 134 20 80 -3 156 -64 213 l-31 28 160 -7 c190
-8 232 -1 286 54 61 60 73 152 32 238 -17 37 -841 821 -897 854 -41 24 -117
32 -170 17z m547 -632 c197 -186 356 -340 353 -343 -3 -3 -29 2 -58 11 -39 12
-191 24 -557 46 -565 33 -512 23 -621 124 -36 34 -80 68 -97 75 -18 7 -31 16
-29 20 2 3 172 -4 378 -16 475 -28 448 -28 448 -4 0 12 -71 86 -187 197 -104
98 -194 188 -202 200 -13 20 -11 26 39 83 l54 62 60 -59 c34 -32 222 -211 419
-396z m-944 -432 c135 -38 252 -124 330 -239 220 -330 59 -769 -324 -880 -106
-31 -279 -7 -414 58 -97 46 -211 162 -255 258 -19 41 -39 98 -45 127 -16 75
-14 197 4 267 23 90 87 215 134 263 141 144 369 203 570 146z m635 -31 c16
-13 84 -76 150 -139 l120 -114 -64 -65 c-35 -36 -68 -65 -72 -65 -3 0 -9 9
-13 19 -8 27 -357 351 -408 379 l-42 24 150 -7 c139 -6 151 -9 179 -32z m-980
-1506 c-58 -54 -70 -62 -78 -48 -5 9 -177 185 -382 391 -235 236 -374 383
-374 395 0 11 24 43 53 72 l52 52 399 -399 400 -399 -70 -64z m-925 528 c33
-36 61 -70 61 -75 0 -4 -46 -51 -101 -103 l-102 -96 319 -332 318 -332 -68
-64 -68 -65 -18 29 c-10 15 -175 192 -366 392 -192 200 -355 374 -361 387 -12
21 -4 30 142 166 85 78 155 146 155 151 0 22 35 0 89 -58z m-435 -414 l68 -68
-57 -54 c-60 -57 -75 -67 -75 -50 0 6 -20 33 -45 61 -72 81 -72 83 -23 133 24
24 48 45 53 45 6 1 41 -29 79 -67z m-156 -427 c174 -92 321 -170 325 -174 4
-4 -27 -37 -70 -73 -74 -63 -79 -66 -93 -48 -22 28 -74 51 -98 44 -12 -3 -22
-9 -22 -12 0 -7 64 -188 89 -254 l11 -28 28 20 c16 11 93 76 172 145 l142 125
139 -72 c76 -40 138 -74 138 -77 0 -3 -34 -34 -75 -68 l-74 -64 -31 26 c-17
14 -39 26 -50 26 -16 0 -319 -252 -319 -266 0 -2 9 -25 19 -51 l19 -49 -70
-59 c-83 -71 -88 -74 -88 -43 0 30 -353 1021 -374 1051 -9 12 -23 32 -32 45
-9 12 -13 22 -10 22 4 0 149 -75 324 -166z m-416 -256 c37 -128 65 -234 62
-237 -3 -3 -22 13 -42 36 -20 22 -65 57 -98 77 -34 20 -67 43 -74 51 -11 13
-59 159 -63 192 -2 14 134 126 142 117 3 -3 36 -109 73 -236z m-342 -336 c226
-135 267 -156 279 -144 20 20 -2 108 -41 161 -17 23 -29 44 -26 46 2 2 60 -29
128 -70 l124 -74 77 -261 c42 -143 72 -260 68 -260 -4 0 -20 16 -35 35 -20 26
-151 110 -488 312 -254 151 -469 283 -479 293 -18 16 -16 19 45 68 35 28 68
51 73 51 6 0 129 -70 275 -157z m-395 -97 c209 -53 377 -218 430 -421 20 -76
19 -220 -1 -298 -48 -185 -196 -336 -393 -401 -78 -26 -238 -16 -343 20 -236
81 -397 299 -398 538 0 147 81 352 172 431 62 54 165 110 239 130 72 19 220
20 294 1z m-785 -827 c112 -260 214 -497 227 -525 26 -61 16 -68 -30 -18 -24
26 -143 89 -487 259 -250 123 -463 232 -472 242 -9 11 -32 54 -52 98 -20 43
-50 94 -67 113 -16 19 -28 37 -26 39 2 3 170 -76 372 -176 202 -99 371 -177
376 -174 5 3 9 15 9 28 0 30 -197 488 -217 503 -13 10 -7 16 43 38 33 14 68
29 79 34 11 5 25 10 31 10 5 1 102 -212 214 -471z m-1026 80 c87 -230 372
-1024 370 -1027 -2 -2 -25 16 -51 40 -31 28 -203 132 -477 288 -236 134 -436
252 -445 262 -8 10 -28 54 -44 96 -15 43 -42 95 -59 116 -16 21 -27 41 -24 44
3 3 166 -86 362 -197 363 -207 373 -212 374 -160 0 26 -170 483 -187 502 -17
19 -21 17 82 57 73 29 81 27 99 -21z m-880 -275 c3 -10 76 -243 162 -518 86
-275 157 -506 158 -514 1 -15 -148 -60 -160 -48 -3 3 -77 231 -163 507 -87
276 -165 510 -174 520 -15 18 -13 20 56 44 87 30 114 32 121 9z m1351 -141
l130 -67 72 -169 c40 -94 74 -176 76 -183 2 -14 -138 -77 -152 -69 -4 3 -52
109 -106 236 -62 143 -112 247 -132 270 -58 68 -52 67 112 -18z m-888 -326
l128 -73 67 -184 c37 -101 64 -187 60 -190 -4 -3 -38 -16 -76 -29 -64 -21 -70
-21 -82 -6 -6 9 -47 115 -90 234 -45 122 -93 238 -111 266 -33 47 -37 56 -29
56 2 0 62 -33 133 -74z"/>
<path d="M17332 6805 c-186 -64 -285 -193 -286 -375 -1 -75 3 -93 30 -151 44
-93 92 -142 182 -187 72 -35 81 -37 172 -37 86 0 101 3 163 32 82 39 178 128
216 198 23 45 26 61 26 155 0 93 -3 111 -27 163 -35 75 -121 160 -195 194 -84
39 -184 41 -281 8z m175 -255 c87 -53 82 -203 -8 -240 -41 -17 -102 1 -146 45
-30 30 -33 38 -33 97 0 66 9 87 45 106 32 18 107 14 142 -8z"/>
<path d="M14365 4271 c-131 -38 -225 -112 -281 -221 -26 -50 -29 -64 -29 -160
0 -93 3 -111 27 -162 34 -74 107 -146 183 -184 55 -26 69 -29 165 -29 98 0
110 2 173 32 48 23 90 54 137 101 61 61 71 76 90 141 18 58 21 87 17 139 -15
160 -132 301 -286 346 -69 20 -120 19 -196 -3z m129 -255 c86 -36 110 -161 43
-224 -43 -41 -70 -44 -129 -14 -72 37 -93 76 -84 155 7 51 12 61 39 78 38 22
85 24 131 5z"/>
<path d="M3546 5159 c-53 -12 -93 -48 -175 -153 -50 -64 -73 -104 -82 -140 -7
-28 -13 -53 -12 -56 0 -3 3 -21 7 -41 6 -33 4 -37 -18 -43 -38 -9 -66 -45 -66
-84 0 -22 15 -62 40 -107 22 -40 40 -78 40 -84 0 -14 -42 -70 -211 -283 -95
-119 -120 -157 -134 -205 -9 -32 -32 -83 -51 -113 -46 -75 -47 -127 -3 -164
41 -35 85 -34 136 3 l39 28 65 -47 c102 -74 196 -85 276 -33 13 9 87 95 165
192 164 203 214 261 222 253 10 -10 6 -42 -8 -65 -8 -12 -17 -37 -21 -56 -4
-19 -22 -57 -40 -85 -37 -59 -55 -107 -55 -147 0 -21 -11 -35 -49 -63 -27 -20
-57 -48 -66 -63 -26 -39 -42 -113 -34 -158 6 -33 3 -42 -16 -57 -32 -25 -57
-82 -49 -113 9 -37 53 -77 168 -154 133 -89 177 -111 226 -111 41 0 80 26 92
60 3 11 27 1 94 -41 49 -31 105 -62 125 -68 32 -10 39 -19 63 -79 48 -123 159
-247 270 -304 92 -47 148 -60 288 -67 127 -6 139 -8 163 -31 15 -14 35 -41 45
-60 32 -62 75 -95 125 -95 31 0 50 6 68 23 l24 23 119 -48 c103 -40 128 -47
185 -46 l67 1 17 -38 c39 -87 82 -98 150 -39 l35 31 15 -36 c8 -19 15 -40 15
-45 0 -5 20 -30 45 -54 48 -49 119 -74 172 -63 24 6 35 -1 78 -45 69 -72 154
-125 249 -155 68 -22 97 -26 184 -24 152 3 158 3 277 -5 85 -6 128 -4 189 9
105 22 113 21 121 -12 12 -49 45 -90 88 -111 62 -30 340 -59 405 -43 47 12
120 8 332 -18 41 -5 93 -6 114 -2 30 5 58 1 110 -17 71 -24 86 -25 311 -20 17
0 84 -3 150 -6 109 -7 130 -5 229 19 132 32 177 51 272 116 40 28 77 50 81 50
5 0 38 -15 73 -34 99 -52 171 -70 270 -67 123 4 171 4 300 -4 100 -6 126 -4
200 15 47 12 123 28 170 35 205 33 216 36 253 66 20 16 48 51 62 78 l26 47 34
-31 c32 -31 97 -55 147 -55 13 0 81 12 152 27 122 26 131 30 171 69 33 31 45
53 54 92 10 47 6 73 -44 310 l-54 258 70 264 c95 358 92 344 78 407 -15 76
-66 127 -141 142 -48 10 -69 9 -174 -14 -65 -14 -132 -28 -148 -32 -29 -6 -94
-62 -113 -97 -10 -19 -11 -19 -40 2 -61 43 -109 45 -266 11 -78 -17 -154 -40
-169 -50 -25 -18 -30 -18 -98 -4 -39 8 -98 15 -131 15 -81 0 -266 -43 -343
-79 -79 -38 -177 -113 -243 -185 l-51 -56 -87 65 c-114 86 -167 112 -303 146
-141 36 -222 37 -362 5 -129 -30 -181 -52 -275 -117 -114 -78 -223 -206 -275
-322 -24 -52 -24 -47 -4 136 21 185 13 236 -46 295 -34 33 -50 41 -117 55
-171 36 -270 32 -335 -14 l-26 -19 -85 63 c-107 81 -170 111 -302 142 -126 30
-230 32 -337 6 l-77 -18 -7 30 c-11 52 -81 108 -185 149 -135 53 -164 59 -218
46 -63 -15 -106 -50 -143 -115 l-31 -55 -49 154 c-68 214 -111 262 -235 263
-61 1 -65 2 -111 47 -138 134 -345 218 -537 218 -65 0 -75 2 -75 18 0 36 -22
93 -47 122 -30 36 -585 410 -608 410 -8 0 -15 4 -15 9 0 11 -434 351 -449 351
-5 0 -16 8 -23 18 -20 28 -169 144 -203 157 -46 19 -96 24 -139 14z m118 -236
c34 -25 65 -50 70 -54 5 -4 -20 -42 -55 -85 -52 -64 -64 -74 -70 -58 -3 11
-27 38 -53 61 -25 23 -46 47 -46 53 0 12 81 130 89 130 3 0 32 -21 65 -47z
m394 -308 c83 -65 152 -121 152 -124 0 -3 -28 -40 -63 -81 -51 -62 -63 -71
-65 -53 -4 24 -174 163 -201 163 -11 0 -129 -140 -306 -361 -160 -200 -291
-356 -293 -348 -2 8 -31 40 -65 71 l-60 57 17 26 c9 14 150 193 313 397 163
204 305 387 316 405 l19 34 42 -34 c22 -18 110 -86 194 -152z m539 -380 l242
-161 -56 -82 c-55 -80 -58 -82 -69 -59 -19 35 -318 230 -341 223 -14 -5 -129
-164 -141 -195 -1 -4 78 -61 177 -127 100 -65 181 -121 180 -124 0 -3 -25 -41
-56 -84 -49 -70 -57 -77 -64 -59 -9 24 -119 103 -143 103 -8 0 -18 -4 -21 -10
-3 -5 -60 -46 -125 -91 l-120 -82 130 -87 130 -86 -57 -83 -56 -83 -14 26 c-8
16 -102 85 -240 177 -124 83 -221 154 -217 159 5 4 95 65 199 135 109 74 191
136 193 146 2 13 -18 32 -67 65 -51 34 -71 53 -71 68 0 12 65 117 145 234 80
117 145 217 145 223 0 5 5 19 11 30 10 20 11 20 37 3 15 -10 136 -90 269 -179z
m677 -396 c147 -45 278 -156 346 -291 22 -45 39 -86 37 -91 -2 -6 -25 -16 -53
-23 -109 -30 -97 -34 -143 44 -96 164 -261 235 -434 187 -80 -22 -121 -44
-182 -94 -46 -38 -50 -40 -60 -22 -5 11 -31 36 -57 56 -69 54 -71 71 -12 123
64 56 177 111 267 128 88 16 207 10 291 -17z m546 -421 c189 -592 192 -602
202 -585 5 9 14 17 21 17 17 0 209 457 202 480 -3 10 -1 21 4 24 14 9 175 -60
179 -76 2 -12 -400 -966 -433 -1028 -13 -24 -14 -22 -15 34 0 47 -30 153 -157
553 l-157 495 23 62 c38 101 51 139 56 179 3 20 8 37 10 37 2 0 32 -87 65
-192z m-1097 -33 c-4 -16 -8 -68 -7 -115 0 -69 5 -95 26 -140 39 -85 98 -144
186 -187 72 -36 81 -38 176 -39 l99 0 24 -85 c12 -46 20 -90 18 -98 -4 -11
-25 -13 -108 -7 -122 8 -200 27 -282 68 -143 71 -239 180 -290 331 -25 76 -31
143 -26 288 l3 76 95 -31 94 -31 -8 -30z m334 -67 c50 -46 115 -102 146 -125
31 -23 63 -55 71 -71 l15 -29 -41 7 c-23 5 -76 6 -118 3 -60 -4 -83 -2 -110
12 -80 40 -110 88 -110 173 0 45 5 66 21 86 11 14 24 26 29 26 4 0 48 -37 97
-82z m5921 -155 c-6 -21 -43 -161 -82 -311 l-72 -273 53 -252 c29 -139 53
-257 53 -262 0 -9 -107 -35 -145 -35 -9 0 -19 10 -24 23 -13 35 -111 505 -111
534 0 14 29 137 66 272 39 150 63 257 60 273 -5 25 -2 28 32 37 66 17 126 29
154 30 26 1 26 0 16 -36z m-3940 -28 c183 -58 338 -219 387 -405 24 -89 20
-235 -10 -327 -56 -178 -196 -317 -374 -373 -180 -57 -436 13 -582 159 -103
104 -169 261 -169 406 0 141 81 338 171 419 158 142 368 186 577 121z m-1436
-159 l45 -145 -74 -173 c-41 -95 -78 -177 -83 -182 -4 -4 -13 1 -19 12 -5 10
-32 29 -59 40 -27 12 -54 28 -61 35 -9 12 8 60 84 237 52 122 95 234 95 248 0
34 10 72 19 72 4 0 28 -65 53 -144z m4907 32 l64 -81 -28 -111 c-16 -61 -30
-115 -33 -120 -3 -5 -13 12 -22 37 -18 48 -181 261 -227 297 -29 23 -29 23 72
43 110 23 104 25 174 -65z m-474 -3 c59 -15 163 -62 198 -89 17 -13 15 -19
-38 -88 -31 -40 -60 -74 -64 -76 -3 -1 -11 8 -16 20 -12 27 -118 67 -180 68
-54 0 -180 -35 -231 -65 -101 -59 -181 -179 -198 -298 -21 -144 75 -312 219
-383 55 -27 69 -29 167 -29 l107 0 24 -90 c13 -49 22 -94 19 -99 -3 -5 -55 -6
-116 -3 -187 9 -326 67 -437 183 -102 108 -147 213 -156 364 -7 118 9 189 72
317 35 71 58 103 101 141 62 56 152 104 235 126 72 19 220 20 294 1z m-2273
-70 c-2 -22 -25 -227 -52 -455 -27 -228 -48 -416 -47 -416 1 -1 70 -9 152 -18
83 -9 167 -19 189 -22 l38 -6 -6 -57 c-18 -151 -20 -157 -55 -127 -10 8 -102
23 -251 40 -150 17 -240 31 -248 40 -11 11 -4 94 42 492 62 532 62 529 52 564
l-7 26 98 -11 98 -10 -3 -40z m1062 -11 c188 -48 343 -192 407 -377 24 -69 29
-98 29 -182 0 -56 -7 -124 -15 -155 -52 -197 -222 -365 -414 -410 -77 -18
-217 -8 -317 24 -239 76 -404 299 -404 546 0 147 80 344 172 424 62 54 165
110 239 130 73 20 226 20 303 0z m1489 -678 c20 -170 36 -310 35 -312 -2 -1
-36 -4 -77 -5 -65 -3 -75 -1 -87 16 -7 11 -22 98 -34 194 -11 96 -25 182 -31
193 -12 22 -10 22 -139 3 -110 -17 -115 -16 -124 30 -14 71 -24 112 -31 128
-5 12 -2 17 11 17 11 1 102 12 204 25 102 13 196 23 210 22 l25 -2 38 -309z"/>
<path d="M6763 2956 c-91 -30 -128 -53 -192 -120 -78 -83 -95 -129 -96 -256 0
-99 2 -108 32 -165 87 -166 269 -248 446 -202 117 31 236 126 283 229 25 54
29 75 28 148 0 112 -26 180 -101 260 -111 120 -248 156 -400 106z m157 -251
c89 -46 104 -166 29 -230 -38 -31 -72 -32 -129 -2 -61 30 -83 74 -75 146 6 58
17 78 50 91 32 14 94 11 125 -5z"/>
<path d="M8600 2741 c-129 -42 -220 -114 -274 -216 -29 -56 -31 -67 -31 -165
0 -95 3 -111 28 -162 39 -79 104 -143 185 -181 61 -29 75 -32 167 -32 92 0
105 3 168 32 48 23 90 54 137 101 59 59 71 77 89 136 25 81 27 143 5 217 -61
208 -281 334 -474 270z m140 -256 c107 -55 100 -212 -12 -254 -22 -8 -36 -5
-80 17 -70 36 -93 79 -83 158 6 48 11 58 38 75 38 23 97 25 137 4z"/>
<path d="M8845 1064 c-2763 -33 -4622 -134 -4725 -259 -82 -98 1018 -192 2890
-245 1686 -48 4404 -48 6090 0 1471 42 2508 111 2796 186 499 130 -943 249
-3681 304 -480 10 -2877 20 -3370 14z"/>
</g>
</svg>
